<svg xmlns="http://www.w3.org/2000/svg" version="1.1" xmlns:xlink="http://www.w3.org/1999/xlink" xmlns:svgjs="http://svgjs.dev/svgjs" width="560" height="1440" preserveAspectRatio="none" viewBox="0 0 560 1440"><g mask="url(&quot;#SvgjsMask1036&quot;)" fill="none"><rect width="560" height="1440" x="0" y="0" fill="rgba(23, 0, 85, 1)"></rect><path d="M0,416.079C94.316,426.091,200.242,486.917,278.261,432.983C356.733,378.736,338.613,257.895,362.445,165.523C381.804,90.49,404.795,19.26,404.996,-58.23C405.225,-146.759,420.609,-247.333,363.69,-315.139C306.711,-383.016,198.228,-363.75,117.619,-400.574C18.314,-445.939,-54.857,-569.225,-163.209,-555.84C-269.403,-542.721,-324.846,-422.807,-389.928,-337.874C-451.395,-257.658,-531.176,-177.356,-530.668,-76.299C-530.17,22.686,-440.36,93.303,-387.34,176.892C-342.247,247.984,-314.348,333.443,-242.718,377.676C-171.582,421.603,-83.139,407.253,0,416.079" fill="#120044"></path><path d="M560 1883.513C668.107 1906.0230000000001 789.792 2001.616 879.981 1937.9 971.547 1873.211 897.071 1717.151 941.3009999999999 1614.134 983.89 1514.937 1125.524 1466.11 1128.867 1358.209 1132.171 1251.5720000000001 1042.679 1159.741 957.3620000000001 1095.684 879.994 1037.595 773.2529999999999 1056.376 682.436 1023.0219999999999 582.407 986.284 502.078 864.84 398.648 890.485 296.123 915.906 281.311 1058.758 213.084 1139.396 145.97699999999998 1218.711 31.831000000000017 1260.309 1.6359999999999673 1359.719-29.663999999999987 1462.767-9.44500000000005 1583.362 51.202 1672.3600000000001 109.24700000000001 1757.539 220.344 1780.866 315.547 1820.376 394.884 1853.301 475.906 1866.003 560 1883.513" fill="#1c0066"></path></g><defs><mask id="SvgjsMask1036"><rect width="560" height="1440" fill="#ffffff"></rect></mask></defs></svg>